HIERARCHY
ROOT Hips
{
	OFFSET 0.00000 0.00000 0.00000
	CHANNELS 6 Xposition Yposition Zposition Zrotation Yrotation Xrotation 
	JOINT LHipJoint
	{
		OFFSET 0 0 0
		CHANNELS 3 Zrotation Yrotation Xrotation
		JOINT LeftUpLeg
		{
			OFFSET 1.81638 -1.86202 0.89635
			CHANNELS 3 Zrotation Yrotation Xrotation
			JOINT LeftLeg
			{
				OFFSET 2.63464 -7.23861 0.00000
				CHANNELS 3 Zrotation Yrotation Xrotation
				JOINT LeftFoot
				{
					OFFSET 2.45871 -6.75336 0.00000
					CHANNELS 3 Zrotation Yrotation Xrotation
					JOINT LeftToeBase
					{
						OFFSET 0.34235 -0.94059 2.20020
						CHANNELS 3 Zrotation Yrotation Xrotation
						End Site
						{
							OFFSET 0.00000 -0.00000 1.18611
						}
					}
				}
			}
		}
	}
	JOINT RHipJoint
	{
		OFFSET 0 0 0
		CHANNELS 3 Zrotation Yrotation Xrotation
		JOINT RightUpLeg
		{
			OFFSET -1.84405 -1.86203 0.89635
			CHANNELS 3 Zrotation Yrotation Xrotation
			JOINT RightLeg
			{
				OFFSET -2.71067 -7.44751 0.00000
				CHANNELS 3 Zrotation Yrotation Xrotation
				JOINT RightFoot
				{
					OFFSET -2.47159 -6.79060 0.00000
					CHANNELS 3 Zrotation Yrotation Xrotation
					JOINT RightToeBase
					{
						OFFSET -0.26223 -0.72048 2.36007
						CHANNELS 3 Zrotation Yrotation Xrotation
						End Site
						{
							OFFSET -0.00000 -0.00000 1.23343
						}
					}
				}
			}
		}
	}
	JOINT LowerBack
	{
		OFFSET 0 0 0
		CHANNELS 3 Zrotation Yrotation Xrotation
		JOINT Spine
		{
			OFFSET 0.02089 1.99248 -0.22512
			CHANNELS 3 Zrotation Yrotation Xrotation
			JOINT Spine1
			{
				OFFSET 0.01476 2.01356 -0.03079
				CHANNELS 3 Zrotation Yrotation Xrotation
				JOINT Neck
				{
					OFFSET 0 0 0
					CHANNELS 3 Zrotation Yrotation Xrotation
					JOINT Neck1
					{
						OFFSET 0.04846 1.65098 0.06663
						CHANNELS 3 Zrotation Yrotation Xrotation
						JOINT Head
						{
							OFFSET -0.06061 1.60634 -0.07565
							CHANNELS 3 Zrotation Yrotation Xrotation
							End Site
							{
								OFFSET -0.02954 1.73562 -0.03642
							}
						}
					}
				}
				JOINT LeftShoulder
				{
					OFFSET 0 0 0
					CHANNELS 3 Zrotation Yrotation Xrotation
					JOINT LeftArm
					{
						OFFSET 3.45234 1.47051 -0.06993
						CHANNELS 3 Zrotation Yrotation Xrotation
						JOINT LeftForeArm
						{
							OFFSET 5.49313 -0.00000 0.00000
							CHANNELS 3 Zrotation Yrotation Xrotation
							JOINT LeftHand
							{
								OFFSET 3.29037 -0.00000 0.00000
								CHANNELS 3 Zrotation Yrotation Xrotation
								JOINT LeftFingerBase
								{
									OFFSET 0 0 0
									CHANNELS 3 Zrotation Yrotation Xrotation
									JOINT LeftHandIndex1
									{
										OFFSET 0.72966 -0.00000 0.00000
										CHANNELS 3 Zrotation Yrotation Xrotation
										End Site
										{
											OFFSET 0.58827 -0.00000 0.00000
										}
									}
								}
								JOINT LThumb
								{
									OFFSET 0 0 0
									CHANNELS 3 Zrotation Yrotation Xrotation
									End Site
									{
										OFFSET 0.59725 -0.00000 0.59725
									}
								}
							}
						}
					}
				}
				JOINT RightShoulder
				{
					OFFSET 0 0 0
					CHANNELS 3 Zrotation Yrotation Xrotation
					JOINT RightArm
					{
						OFFSET -3.41935 1.44327 0.20453
						CHANNELS 3 Zrotation Yrotation Xrotation
						JOINT RightForeArm
						{
							OFFSET -5.23684 -0.00000 0.00000
							CHANNELS 3 Zrotation Yrotation Xrotation
							JOINT RightHand
							{
								OFFSET -3.38251 -0.00000 0.00000
								CHANNELS 3 Zrotation Yrotation Xrotation
								JOINT RightFingerBase
								{
									OFFSET 0 0 0
									CHANNELS 3 Zrotation Yrotation Xrotation
									JOINT RightHandIndex1
									{
										OFFSET -0.69145 -0.00000 0.00000
										CHANNELS 3 Zrotation Yrotation Xrotation
										End Site
										{
											OFFSET -0.55747 -0.00000 0.00000
										}
									}
								}
								JOINT RThumb
								{
									OFFSET 0 0 0
									CHANNELS 3 Zrotation Yrotation Xrotation
									End Site
									{
										OFFSET -0.56598 -0.00000 0.56598
									}
								}
							}
						}
					}
				}
			}
		}
	}
}
MOTION
Frames: 14
Frame Time: .0083333
-1.7576 17.6428 5.3471 -2.0856 45.0489 7.5789 0.0000 0.0000 0.0000 -8.0760 -18.1586 -25.5382 11.4366 18.1422 64.1913 -1.4001 -29.2486 -11.8374 1.0212 -6.4288 -18.0337 0.0000 0.0000 0.0000 18.3262 14.5314 -16.7053 -3.2979 -11.1624 32.8295 -0.8777 10.9787 -17.2941 -0.0033 -0.3718 1.0216 5.1047 1.5423 21.2464 2.8886 3.4987 4.7048 -0.7078 1.6893 -6.6088 14.2282 5.2117 -0.7997 -21.5336 7.1510 -0.8060 -8.8972 3.6008 1.2659 -0.0000 -0.0000 0.0000 -81.4825 26.3978 36.0029 26.3910 -37.5922 -9.1251 -0.0000 -0.0000 5.7712 -2.4635 9.8008 -0.4196 -7.1250 0.0000 -0.0000 -25.0265 38.5108 4.3269 -0.0000 -0.0000 0.0000 76.1746 -13.7954 27.3107 -27.2560 38.4222 -9.6578 0.0000 -0.0000 -0.3887 -13.5203 -17.7590 4.1947 7.1250 -0.0000 -0.0000 13.9107 -47.7148 -0.9491
-1.6905 17.6592 5.4329 -2.1622 45.0022 7.5698 0.0000 0.0000 0.0000 -8.3760 -18.7141 -26.2376 11.1091 17.9881 63.1354 -1.3790 -29.4008 -12.1661 1.0134 -6.4049 -17.9639 0.0000 0.0000 0.0000 18.5924 14.5518 -16.0519 -3.2103 -11.0280 32.3742 -0.9068 10.6568 -17.4741 -0.0038 -0.3955 1.0868 5.1461 1.6986 21.2783 2.8703 3.7105 4.7068 -0.8063 1.7902 -6.6101 14.2328 5.1924 -0.8655 -21.5060 7.1287 -0.7244 -8.8872 3.5842 1.2949 0.0000 -0.0000 0.0000 -81.3087 27.0158 36.1758 26.3175 -37.5206 -9.0804 -0.0000 -0.0000 5.5503 -2.7467 9.8873 -0.4720 -7.1250 0.0000 -0.0000 -25.2816 38.5660 4.3410 0.0000 -0.0000 0.0000 76.0234 -13.4835 27.5287 -27.9552 39.0749 -10.0954 0.0000 -0.0000 -1.1907 -13.6901 -17.8498 4.2701 7.1250 -0.0000 -0.0000 13.7843 -47.8280 -0.9793
-1.6226 17.6702 5.5184 -2.2537 45.0106 7.5261 0.0000 0.0000 0.0000 -8.6662 -19.2587 -26.8854 10.7410 17.8060 61.9376 -1.3364 -29.4509 -12.5285 1.0015 -6.3685 -17.8573 0.0000 0.0000 0.0000 18.8820 14.5257 -15.3676 -3.1205 -10.8876 31.9017 -0.9373 10.3031 -17.6659 -0.0042 -0.4197 1.1533 5.2010 1.8293 21.3318 2.8526 3.8942 4.7075 -0.9056 1.8771 -6.6241 14.2282 5.1741 -0.9266 -21.4711 7.1050 -0.6657 -8.8736 3.5677 1.3158 -0.0000 -0.0000 0.0000 -81.1199 27.6054 36.2591 26.2846 -37.4884 -9.0603 -0.0000 -0.0000 5.2429 -2.9731 9.9809 -0.5157 -7.1250 0.0000 -0.0000 -25.4939 38.6320 4.3385 -0.0000 -0.0000 0.0000 75.8881 -13.1951 27.7142 -28.6892 39.7431 -10.5615 0.0000 -0.0000 -1.9768 -13.9038 -17.9297 4.3579 7.1250 -0.0000 -0.0000 13.6130 -47.9369 -1.0038
-1.5533 17.6859 5.6051 -2.3577 45.0620 7.4624 0.0000 0.0000 0.0000 -8.9602 -19.7596 -27.4586 10.3249 17.5886 60.5689 -1.2707 -29.3839 -12.9191 0.9830 -6.3111 -17.6898 0.0000 0.0000 0.0000 19.1935 14.4562 -14.6486 -3.0259 -10.7369 31.3977 -0.9681 9.9276 -17.8625 -0.0049 -0.4541 1.2478 5.2630 1.9399 21.3949 2.8352 4.0546 4.7019 -1.0034 1.9522 -6.6500 14.2165 5.1571 -0.9767 -21.4346 7.0810 -0.6300 -8.8587 3.5523 1.3279 -0.0000 -0.0000 0.0000 -80.9174 28.1686 36.2593 26.2931 -37.4966 -9.0655 -0.0000 -0.0000 4.8620 -3.1741 10.0890 -0.5566 -7.1250 0.0000 -0.0000 -25.6910 38.7129 4.3219 -0.0000 -0.0000 0.0000 75.7664 -12.9365 27.8762 -29.4562 40.4227 -11.0553 0.0000 -0.0000 -2.7418 -14.1756 -17.9968 4.4623 7.1250 -0.0000 -0.0000 13.3828 -48.0414 -1.0213
-1.4828 17.7008 5.6926 -2.4613 45.1624 7.3950 0.0000 0.0000 0.0000 -9.2646 -20.2124 -27.9872 9.8731 17.3378 59.0632 -1.1806 -29.1975 -13.3489 0.9621 -6.2453 -17.4979 0.0000 0.0000 0.0000 19.5117 14.3417 -13.9186 -2.9299 -10.5808 30.8787 -0.9982 9.5359 -18.0587 -0.0058 -0.4921 1.3521 5.3265 2.0302 21.4555 2.8148 4.1891 4.6894 -1.0988 2.0145 -6.6824 14.1886 5.1389 -1.0133 -21.3876 7.0529 -0.6202 -8.8382 3.5363 1.3286 -0.0000 0.0000 0.0000 -80.6962 28.6985 36.1892 26.3397 -37.5422 -9.0939 -0.0000 -0.0000 4.4247 -3.3644 10.2116 -0.5971 -7.1250 0.0000 -0.0000 -25.8848 38.8075 4.2942 -0.0000 0.0000 0.0000 75.6614 -12.7125 28.0197 -30.2558 41.1117 -11.5775 0.0000 -0.0000 -3.4858 -14.5132 -18.0363 4.5824 7.1250 -0.0000 -0.0000 13.0810 -48.1282 -1.0259
-1.4112 17.7150 5.7814 -2.5770 45.2933 7.3271 0.0000 0.0000 0.0000 -9.5686 -20.5880 -28.4833 9.3875 17.0507 57.4208 -1.0755 -28.9042 -13.7711 0.9319 -6.1495 -17.2189 0.0000 0.0000 0.0000 19.8419 14.1932 -13.1802 -2.8280 -10.4113 30.3192 -1.0240 9.1372 -18.2248 -0.0071 -0.5447 1.4967 5.3926 2.1095 21.4998 2.7913 4.3087 4.6679 -1.1947 2.0693 -6.7161 14.1484 5.1223 -1.0455 -21.3267 7.0252 -0.6230 -8.8109 3.5210 1.3240 -0.0000 0.0000 0.0000 -80.4508 29.1910 36.0641 26.4200 -37.6204 -9.1428 -0.0000 -0.0000 3.9530 -3.5607 10.3476 -0.6404 -7.1250 0.0000 -0.0000 -26.0884 38.9135 4.2594 -0.0000 0.0000 0.0000 75.5721 -12.5331 28.1581 -31.0970 41.8153 -12.1345 0.0000 -0.0000 -4.2158 -14.9234 -18.0533 4.7216 7.1250 -0.0000 -0.0000 12.7032 -48.2032 -1.0192
-1.3386 17.7288 5.8719 -2.6989 45.4605 7.2594 0.0000 0.0000 0.0000 -9.8871 -20.8754 -28.9437 8.8778 16.7285 55.6667 -0.9511 -28.5014 -14.2204 0.8976 -6.0381 -16.8951 0.0000 0.0000 0.0000 20.1788 14.0095 -12.4389 -2.7247 -10.2354 29.7425 -1.0464 8.7453 -18.3719 -0.0089 -0.6105 1.6777 5.4588 2.1764 21.5214 2.7640 4.4107 4.6407 -1.2894 2.1156 -6.7445 14.1007 5.1048 -1.0720 -21.2579 6.9954 -0.6360 -8.7801 3.5052 1.3146 0.0000 -0.0000 0.0000 -80.1775 29.6430 35.8998 26.5323 -37.7296 -9.2115 -0.0000 -0.0000 3.4677 -3.7194 10.4880 -0.6780 -7.1250 0.0000 -0.0000 -26.2640 39.0262 4.2132 0.0000 -0.0000 0.0000 75.4969 -12.4011 28.3001 -31.9801 42.5313 -12.7273 0.0000 -0.0000 -4.9360 -15.3974 -18.0461 4.8763 7.1250 -0.0000 -0.0000 12.2565 -48.2635 -1.0007
-1.2653 17.7423 5.9644 -2.8397 45.6428 7.1939 0.0000 0.0000 0.0000 -10.2108 -21.0455 -29.3866 8.3515 16.3718 53.8190 -0.8131 -28.0000 -14.6787 0.8585 -5.9087 -16.5199 0.0000 0.0000 0.0000 20.5276 13.8043 -11.7081 -2.6193 -10.0516 29.1440 -1.0633 8.3647 -18.4807 -0.0106 -0.6660 1.8302 5.5206 2.2420 21.5105 2.7340 4.5075 4.6054 -1.3816 2.1595 -6.7645 14.0461 5.0868 -1.0983 -21.1777 6.9642 -0.6515 -8.7443 3.4887 1.3035 -0.0000 0.0000 0.0000 -79.8760 30.0490 35.7063 26.6679 -37.8607 -9.2946 -0.0000 -0.0000 2.9917 -3.8567 10.6260 -0.7122 -7.1250 0.0000 -0.0000 -26.4221 39.1385 4.1628 -0.0000 0.0000 0.0000 75.4376 -12.3162 28.4438 -32.9007 43.2535 -13.3539 0.0000 -0.0000 -5.6446 -15.9174 -18.0115 5.0394 7.1250 -0.0000 -0.0000 11.7569 -48.3034 -0.9705
-1.1910 17.7557 6.0590 -3.0016 45.8343 7.1275 0.0000 0.0000 0.0000 -10.5471 -21.0891 -29.8080 7.8157 15.9820 51.8961 -0.6657 -27.4040 -15.1314 0.8180 -5.7711 -16.1218 0.0000 0.0000 0.0000 20.8863 13.5788 -10.9850 -2.5117 -9.8591 28.5216 -1.0738 8.0140 -18.5443 -0.0122 -0.7132 1.9601 5.5764 2.3079 21.4607 2.7018 4.6004 4.5641 -1.4700 2.2018 -6.7709 13.9909 5.0701 -1.1252 -21.0892 6.9350 -0.6635 -8.7055 3.4730 1.2935 -0.0000 0.0000 0.0000 -79.5513 30.4072 35.4863 26.8238 -38.0107 -9.3904 -0.0000 -0.0000 2.5361 -3.9700 10.7591 -0.7423 -7.1250 0.0000 -0.0000 -26.5597 39.2481 4.1096 -0.0000 0.0000 0.0000 75.3916 -12.2759 28.5939 -33.8537 43.9760 -14.0114 0.0000 -0.0000 -6.3393 -16.4755 -17.9510 5.2081 7.1250 -0.0000 -0.0000 11.2122 -48.3226 -0.9299
-1.1157 17.7688 6.1558 -3.1803 46.0315 7.0628 0.0000 0.0000 0.0000 -10.9060 -21.0036 -30.2079 7.2795 15.5628 49.9238 -0.5101 -26.7132 -15.5794 0.7785 -5.6333 -15.7240 0.0000 0.0000 0.0000 21.2479 13.3322 -10.2720 -2.4024 -9.6582 27.8768 -1.0777 7.7078 -18.5602 -0.0138 -0.7576 2.0820 5.6246 2.3764 21.3704 2.6643 4.6914 4.5176 -1.5570 2.2438 -6.7616 13.9279 5.0501 -1.1563 -20.9785 6.9012 -0.6663 -8.6578 3.4544 1.2847 -0.0000 -0.0000 0.0000 -79.2002 30.7131 35.2488 26.9932 -38.1727 -9.4949 -0.0000 -0.0000 2.1039 -4.0592 10.8772 -0.7672 -7.1250 0.0000 -0.0000 -26.6732 39.3462 4.0594 -0.0000 -0.0000 0.0000 75.3653 -12.2727 28.7400 -34.8263 44.6877 -14.6910 0.0000 -0.0000 -7.0080 -17.0333 -17.8778 5.3729 7.1250 -0.0000 -0.0000 10.6632 -48.3290 -0.8850
-1.0396 17.7815 6.2544 -3.3649 46.2358 7.0033 0.0000 0.0000 0.0000 -11.2999 -20.8018 -30.5794 6.7518 15.1193 47.9294 -0.3549 -25.9336 -15.9825 0.7340 -5.4735 -15.2642 0.0000 0.0000 0.0000 21.6033 13.0547 -9.5704 -2.2919 -9.4494 27.2115 -1.0753 7.4470 -18.5278 -0.0143 -0.7735 2.1257 5.6542 2.4460 21.2431 2.6217 4.7765 4.4670 -1.6355 2.2836 -6.7383 13.8628 5.0319 -1.1939 -20.8499 6.8707 -0.6541 -8.6034 3.4366 1.2811 -0.0000 0.0000 0.0000 -78.8349 30.9677 34.9841 27.1748 -38.3454 -9.6074 -0.0000 -0.0000 1.7063 -4.1379 10.9775 -0.7893 -7.1250 0.0000 -0.0000 -26.7721 39.4292 4.0169 -0.0000 0.0000 0.0000 75.3547 -12.2983 28.8838 -35.8040 45.3778 -15.3829 0.0000 -0.0000 -7.6423 -17.5643 -17.7818 5.5214 7.1250 -0.0000 -0.0000 10.1323 -48.3083 -0.8349
-0.9622 17.7936 6.3549 -3.5621 46.4356 6.9395 0.0000 0.0000 0.0000 -11.7250 -20.4909 -30.9170 6.2424 14.6592 45.9471 -0.2008 -25.0634 -16.3440 0.6877 -5.3017 -14.7710 0.0000 0.0000 0.0000 21.9550 12.7475 -8.8776 -2.1812 -9.2337 26.5290 -1.0658 7.2481 -18.4392 -0.0147 -0.7840 2.1545 5.6680 2.5192 21.0809 2.5741 4.8599 4.4120 -1.7077 2.3231 -6.7022 13.7865 5.0113 -1.2203 -20.6918 6.8382 -0.6325 -8.5375 3.4179 1.2762 -0.0000 -0.0000 0.0000 -78.4579 31.1758 34.6983 27.3637 -38.5239 -9.7248 -0.0000 -0.0000 1.3351 -4.2199 11.0690 -0.8116 -7.1250 0.0000 -0.0000 -26.8707 39.5038 3.9801 -0.0000 -0.0000 0.0000 75.3573 -12.3475 29.0272 -36.7705 46.0357 -16.0746 0.0000 -0.0000 -8.2404 -18.0535 -17.6803 5.6535 7.1250 -0.0000 -0.0000 9.6394 -48.2757 -0.7857
-0.8836 17.8048 6.4568 -3.7691 46.6352 6.8639 0.0000 0.0000 0.0000 -12.1803 -20.1015 -31.2073 5.7603 14.1920 44.0120 -0.0534 -24.1141 -16.6446 0.6362 -5.1031 -14.2029 0.0000 0.0000 0.0000 22.3018 12.4032 -8.1874 -2.0710 -9.0125 25.8344 -1.0506 7.1104 -18.3030 -0.0148 -0.7858 2.1596 5.6651 2.5927 20.8931 2.5214 4.9377 4.3558 -1.7727 2.3607 -6.6549 13.7066 4.9925 -1.2498 -20.5056 6.8097 -0.5884 -8.4612 3.4003 1.2777 -0.0000 0.0000 0.0000 -78.0726 31.3346 34.3944 27.5564 -38.7047 -9.8451 -0.0000 -0.0000 0.9875 -4.2948 11.1416 -0.8314 -7.1250 0.0000 -0.0000 -26.9570 39.5622 3.9525 -0.0000 0.0000 0.0000 75.3732 -12.4110 29.1680 -37.7102 46.6532 -16.7545 0.0000 -0.0000 -8.7966 -18.4782 -17.5594 5.7570 7.1250 -0.0000 -0.0000 9.2022 -48.2135 -0.7353
-0.8034 17.8148 6.5601 -3.9933 46.8299 6.7625 0.0000 0.0000 0.0000 -12.6509 -19.6660 -31.4395 5.3142 13.7291 42.1628 0.0837 -23.1004 -16.8800 0.5791 -4.8730 -13.5466 0.0000 0.0000 0.0000 22.6499 12.0195 -7.4905 -1.9618 -8.7861 25.1284 -1.0298 7.0323 -18.1181 -0.0146 -0.7807 2.1455 5.6502 2.6666 20.6847 2.4659 5.0117 4.3001 -1.8314 2.3970 -6.5968 13.6258 4.9779 -1.2829 -20.2876 6.7894 -0.5133 -8.3735 3.3855 1.2887 0.0000 -0.0000 0.0000 -77.6860 31.4487 34.0704 27.7526 -38.8875 -9.9680 -0.0000 -0.0000 0.6657 -4.3713 11.1970 -0.8504 -7.1250 0.0000 -0.0000 -27.0383 39.6048 3.9354 0.0000 -0.0000 0.0000 75.3996 -12.4823 29.3047 -38.6071 47.2226 -17.4098 0.0000 -0.0000 -9.3054 -18.8181 -17.4319 5.8290 7.1250 -0.0000 -0.0000 8.8439 -48.1316 -0.6883
